<svg width="459" height="417" viewBox="0 0 459 417" fill="none" xmlns="http://www.w3.org/2000/svg">
<path d="M197.042 414.599H199.042V412.599V235.259V233.259H197.042H138.063C137.819 195.202 143.642 168.895 157.862 150.707C172.293 132.248 195.697 121.749 231.521 116.238L233.367 115.954L233.21 114.092L223.973 5.10211L223.798 3.03199L221.736 3.286C157.824 11.1591 102.797 29.0265 63.771 68.4028C24.7101 107.815 2 168.443 2 261.121V412.599V414.599H4H197.042ZM419.64 414.599H421.64V412.599V235.259V233.259H419.64H360.662C360.417 195.202 366.241 168.895 380.46 150.707C394.891 132.248 418.295 121.749 454.119 116.238L455.966 115.954L455.808 114.092L446.572 5.10211L446.396 3.03199L444.334 3.286C380.423 11.1591 325.395 29.0265 286.369 68.4028C247.309 107.815 224.599 168.443 224.599 261.121V412.599V414.599H226.599H419.64Z" stroke="#F10000" stroke-width="4"/>
</svg>
