<svg width="223" height="147" viewBox="0 0 223 147" fill="none" xmlns="http://www.w3.org/2000/svg">
<path d="M0 16.1V11.1H9.85V0.949951H15.05V11.1H24.95V16.1H15.05V26.25H9.85V16.1H0Z" fill="#F10000" fill-opacity="0.79"/>
<path d="M49.4668 16.1V11.1H59.3168V0.949951H64.5168V11.1H74.4168V16.1H64.5168V26.25H59.3168V16.1H49.4668Z" fill="#F10000" fill-opacity="0.79"/>
<path d="M98.9336 16.1V11.1H108.784V0.949951H113.984V11.1H123.884V16.1H113.984V26.25H108.784V16.1H98.9336Z" fill="#F10000" fill-opacity="0.79"/>
<path d="M148.4 16.1V11.1H158.25V0.949951H163.45V11.1H173.35V16.1H163.45V26.25H158.25V16.1H148.4Z" fill="#F10000" fill-opacity="0.79"/>
<path d="M197.867 16.1V11.1H207.717V0.949951H212.917V11.1H222.817V16.1H212.917V26.25H207.717V16.1H197.867Z" fill="#F10000" fill-opacity="0.79"/>
<path d="M0 56.1V51.1H9.85V40.95H15.05V51.1H24.95V56.1H15.05V66.25H9.85V56.1H0Z" fill="#F10000" fill-opacity="0.79"/>
<path d="M49.4668 56.1V51.1H59.3168V40.95H64.5168V51.1H74.4168V56.1H64.5168V66.25H59.3168V56.1H49.4668Z" fill="#F10000" fill-opacity="0.79"/>
<path d="M98.9336 56.1V51.1H108.784V40.95H113.984V51.1H123.884V56.1H113.984V66.25H108.784V56.1H98.9336Z" fill="#F10000" fill-opacity="0.79"/>
<path d="M148.4 56.1V51.1H158.25V40.95H163.45V51.1H173.35V56.1H163.45V66.25H158.25V56.1H148.4Z" fill="#F10000" fill-opacity="0.79"/>
<path d="M197.867 56.1V51.1H207.717V40.95H212.917V51.1H222.817V56.1H212.917V66.25H207.717V56.1H197.867Z" fill="#F10000" fill-opacity="0.79"/>
<path d="M0 96.1V91.1H9.85V80.95H15.05V91.1H24.95V96.1H15.05V106.25H9.85V96.1H0Z" fill="#F10000" fill-opacity="0.79"/>
<path d="M49.4668 96.1V91.1H59.3168V80.95H64.5168V91.1H74.4168V96.1H64.5168V106.25H59.3168V96.1H49.4668Z" fill="#F10000" fill-opacity="0.79"/>
<path d="M98.9336 96.1V91.1H108.784V80.95H113.984V91.1H123.884V96.1H113.984V106.25H108.784V96.1H98.9336Z" fill="#F10000" fill-opacity="0.79"/>
<path d="M148.4 96.1V91.1H158.25V80.95H163.45V91.1H173.35V96.1H163.45V106.25H158.25V96.1H148.4Z" fill="#F10000" fill-opacity="0.79"/>
<path d="M197.867 96.1V91.1H207.717V80.95H212.917V91.1H222.817V96.1H212.917V106.25H207.717V96.1H197.867Z" fill="#F10000" fill-opacity="0.79"/>
<path d="M0 136.1V131.1H9.85V120.95H15.05V131.1H24.95V136.1H15.05V146.25H9.85V136.1H0Z" fill="#F10000" fill-opacity="0.79"/>
<path d="M49.4668 136.1V131.1H59.3168V120.95H64.5168V131.1H74.4168V136.1H64.5168V146.25H59.3168V136.1H49.4668Z" fill="#F10000" fill-opacity="0.79"/>
<path d="M98.9336 136.1V131.1H108.784V120.95H113.984V131.1H123.884V136.1H113.984V146.25H108.784V136.1H98.9336Z" fill="#F10000" fill-opacity="0.79"/>
<path d="M148.4 136.1V131.1H158.25V120.95H163.45V131.1H173.35V136.1H163.45V146.25H158.25V136.1H148.4Z" fill="#F10000" fill-opacity="0.79"/>
<path d="M197.867 136.1V131.1H207.717V120.95H212.917V131.1H222.817V136.1H212.917V146.25H207.717V136.1H197.867Z" fill="#F10000" fill-opacity="0.79"/>
</svg>
