<?xml version="1.0" encoding="UTF-8"?>
<svg id="Layer_2" data-name="Layer 2" xmlns="http://www.w3.org/2000/svg" viewBox="0 0 50.58 50.58">
  <defs>
    <style>
      .cls-1 {
        fill: #231f20;
        stroke-width: 0px;
      }
    </style>
  </defs>
  <g id="Layer_4" data-name="Layer 4">
    <g>
      <path class="cls-1" d="M23.91,47.7c-.11-.05-.22-.1-.32-.16-2.04-1.07-3.3-3.17-3.3-5.46v-11.81h-11.72c-3.41,0-6.19-2.77-6.19-6.18v-15.5c0-3.4,2.78-6.18,6.19-6.18h15.53c3.41,0,6.19,2.77,6.19,6.18v11.82h5.77v-2.42h-3.4v-9.45c0-4.71-3.84-8.55-8.57-8.55h-15.53C3.84,0,0,3.83,0,8.55v15.5c0,4.71,3.84,8.54,8.57,8.54h9.34v9.45c0,3.18,1.75,6.07,4.57,7.56.46.24.94.44,1.43.59"/>
      <path class="cls-1" d="M46.95,41.99h-2.38c0,1.43-1.17,2.6-2.6,2.6h-4.03l-.09-6.03c0-.46.23-.77.37-.91.14-.14.44-.38.9-.38h11.46v-10.74c0-4.71-3.84-8.55-8.57-8.55h-4.7v2.42h4.7c3.41,0,6.19,2.77,6.19,6.18v8.37h-9.08c-.98,0-1.9.38-2.59,1.08-.69.7-1.06,1.62-1.05,2.6l.12,8.37h6.38c2.75,0,4.98-2.23,4.98-4.97"/>
      <path class="cls-1" d="M48.2,42.04c0,3.43-2.79,6.21-6.23,6.21h-7.61l-.14-9.6c-.02-1.32.48-2.56,1.41-3.5s2.16-1.45,3.48-1.45h7.83v-7.12c0-2.72-2.22-4.93-4.94-4.93h-4.7v2.32h4.7c1.42,0,2.57,1.15,2.57,2.56v4.75h-5.46c-1.96,0-3.8.77-5.18,2.16s-2.12,3.24-2.09,5.19l.17,11.93h9.95c4.74,0,8.6-3.85,8.6-8.58h-2.38"/>
      <path class="cls-1" d="M23.91,46.29c-1.47-.89-2.38-2.48-2.38-4.21v-15.5c0-2.72,2.22-4.93,4.94-4.93h9.59v2.32h-9.59c-1.42,0-2.57,1.15-2.57,2.56v15.5"/>
      <path class="cls-1" d="M24.1,3.66h-15.53c-2.72,0-4.94,2.21-4.94,4.93v15.5c0,2.72,2.22,4.93,4.94,4.93h11.72v-2.43c0-3.4,2.78-6.18,6.19-6.18h2.56v-11.82c0-2.72-2.22-4.93-4.94-4.93ZM26.67,17.99h-.19c-4.72,0-8.57,3.83-8.57,8.55v.06h-9.34c-1.42,0-2.57-1.15-2.57-2.56v-15.5c0-1.41,1.15-2.56,2.57-2.56h15.53c1.42,0,2.57,1.15,2.57,2.56v9.45Z"/>
    </g>
  </g>
</svg>